<svg width="195" height="42" viewBox="0 0 195 42" fill="none" xmlns="http://www.w3.org/2000/svg">
<circle cx="20.9226" cy="20.9226" r="20.9226" fill="#202355"/>
<path d="M24.8265 22.6182H22.3246V30.0905H18.9888V22.6182H16.2533V19.5492H18.9888V17.1807C18.9888 14.512 20.59 13.0109 23.0252 13.0109C24.1927 13.0109 25.427 13.2444 25.427 13.2444V15.8797H24.0593C22.7249 15.8797 22.3246 16.6803 22.3246 17.5477V19.5492H25.2935L24.8265 22.6182Z" fill="white"/>
<circle cx="71.7678" cy="20.9226" r="20.9226" fill="#202355"/>
<path d="M78.7055 17.598C78.7055 17.7648 78.7055 17.8982 78.7055 18.065C78.7055 22.7019 75.2028 28.0059 68.7646 28.0059C66.7631 28.0059 64.9283 27.4388 63.3938 26.438C63.6607 26.4714 63.9276 26.5048 64.2278 26.5048C65.8624 26.5048 67.3635 25.9377 68.5644 25.0036C67.0299 24.9703 65.7289 23.9695 65.2953 22.5684C65.5288 22.6018 65.7289 22.6352 65.9624 22.6352C66.2627 22.6352 66.5963 22.5684 66.8631 22.5017C65.2619 22.1681 64.061 20.7671 64.061 19.0658V19.0324C64.528 19.2993 65.0951 19.4327 65.6622 19.4661C64.6948 18.8323 64.0944 17.7648 64.0944 16.5639C64.0944 15.8967 64.2612 15.2962 64.5614 14.7959C66.296 16.8975 68.898 18.2985 71.8002 18.4653C71.7335 18.1985 71.7001 17.9316 71.7001 17.6647C71.7001 15.7299 73.268 14.1621 75.2028 14.1621C76.2036 14.1621 77.1042 14.5624 77.7714 15.2629C78.5387 15.0961 79.3059 14.7959 79.9731 14.3956C79.7062 15.2295 79.1725 15.8967 78.4386 16.3304C79.1391 16.2636 79.8397 16.0635 80.4401 15.7966C79.9731 16.4972 79.3726 17.0976 78.7055 17.598Z" fill="white"/>
<circle cx="173.458" cy="20.9226" r="20.9226" fill="#202355"/>
<path d="M169.962 27.1021H166.859V17.1278H169.962V27.1021ZM168.394 15.7935C167.426 15.7935 166.626 14.9595 166.626 13.9587C166.626 12.9913 167.426 12.1907 168.394 12.1907C169.394 12.1907 170.195 12.9913 170.195 13.9587C170.195 14.9595 169.394 15.7935 168.394 15.7935ZM181.537 27.1021H178.468V22.265C178.468 21.0975 178.435 19.6297 176.833 19.6297C175.232 19.6297 174.999 20.864 174.999 22.165V27.1021H171.896V17.1278H174.865V18.4955H174.899C175.332 17.7283 176.333 16.8943 177.834 16.8943C180.97 16.8943 181.57 18.9625 181.57 21.6312V27.1021H181.537Z" fill="white"/>
<circle cx="122.613" cy="20.9226" r="20.9226" fill="#202355"/>
<path d="M122.789 16.8604C124.891 16.8604 126.625 18.5951 126.625 20.6967C126.625 22.8317 124.891 24.5329 122.789 24.5329C120.654 24.5329 118.953 22.8317 118.953 20.6967C118.953 18.5951 120.654 16.8604 122.789 16.8604ZM122.789 23.1986C124.157 23.1986 125.258 22.0978 125.258 20.6967C125.258 19.329 124.157 18.2282 122.789 18.2282C121.388 18.2282 120.287 19.329 120.287 20.6967C120.287 22.0978 121.421 23.1986 122.789 23.1986ZM127.66 16.727C127.66 17.2274 127.259 17.6277 126.759 17.6277C126.258 17.6277 125.858 17.2274 125.858 16.727C125.858 16.2266 126.258 15.8263 126.759 15.8263C127.259 15.8263 127.66 16.2266 127.66 16.727ZM130.195 17.6277C130.261 18.862 130.261 22.5648 130.195 23.7991C130.128 25 129.861 26.0341 128.994 26.9348C128.127 27.8021 127.059 28.069 125.858 28.1357C124.624 28.2024 120.921 28.2024 119.687 28.1357C118.486 28.069 117.452 27.8021 116.551 26.9348C115.684 26.0341 115.417 25 115.35 23.7991C115.283 22.5648 115.283 18.862 115.35 17.6277C115.417 16.4268 115.684 15.3593 116.551 14.492C117.452 13.6247 118.486 13.3578 119.687 13.2911C120.921 13.2243 124.624 13.2243 125.858 13.2911C127.059 13.3578 128.127 13.6247 128.994 14.492C129.861 15.3593 130.128 16.4268 130.195 17.6277ZM128.594 25.1C128.994 24.1326 128.894 21.7975 128.894 20.6967C128.894 19.6292 128.994 17.2941 128.594 16.2933C128.327 15.6595 127.826 15.1258 127.192 14.8923C126.192 14.492 123.857 14.5921 122.789 14.5921C121.688 14.5921 119.353 14.492 118.386 14.8923C117.719 15.1592 117.218 15.6595 116.951 16.2933C116.551 17.2941 116.651 19.6292 116.651 20.6967C116.651 21.7975 116.551 24.1326 116.951 25.1C117.218 25.7672 117.719 26.2676 118.386 26.5345C119.353 26.9348 121.688 26.8347 122.789 26.8347C123.857 26.8347 126.192 26.9348 127.192 26.5345C127.826 26.2676 128.36 25.7672 128.594 25.1Z" fill="white"/>
</svg>
