<svg width="1140" height="300" viewBox="0 0 1140 300" fill="none" xmlns="http://www.w3.org/2000/svg">
<g opacity="0.6">
<mask id="path-1-inside-1_1088_1235" fill="white">
<path d="M0 244.51V204.786H33.1694V44.519H0V4.79388H129.795C145.178 4.79388 158.519 7.30555 169.815 12.3278C181.353 17.1231 190.246 24.0858 196.495 33.2181C202.985 42.1214 206.23 52.8511 206.23 65.4083V68.8321C206.23 79.7909 204.067 88.8092 199.74 95.886C195.414 102.735 190.246 108.1 184.237 111.981C178.468 115.634 172.94 118.26 167.652 119.858V126.022C172.94 127.392 178.709 130.017 184.958 133.899C191.208 137.551 196.495 142.916 200.821 149.994C205.389 157.07 207.672 166.317 207.672 177.732V181.157C207.672 194.398 204.427 205.813 197.937 215.401C191.448 224.762 182.434 231.953 170.897 236.976C159.6 241.998 146.379 244.51 131.237 244.51H0ZM80.761 203.415H125.468C135.804 203.415 144.096 201.019 150.345 196.224C156.836 191.43 160.08 184.58 160.08 175.677V172.252C160.08 163.349 156.956 156.5 150.707 151.705C144.456 146.911 136.044 144.514 125.468 144.514H80.761V203.415ZM80.761 103.42H124.748C134.602 103.42 142.655 101.023 148.904 96.2291C155.393 91.4338 158.639 84.8131 158.639 76.366V72.9422C158.639 64.267 155.514 57.6463 149.264 53.0802C143.015 48.286 134.843 45.8883 124.748 45.8883H80.761V103.42ZM267.544 313V275.33H364.891C371.621 275.33 374.986 271.906 374.986 265.057V222.25H368.496C366.573 226.131 363.569 230.013 359.483 233.894C355.397 237.775 349.868 240.971 342.897 243.482C335.927 245.994 327.034 247.249 316.218 247.249C302.276 247.249 290.018 244.282 279.442 238.345C269.107 232.182 261.055 223.734 255.286 213.005C249.517 202.274 246.633 189.946 246.633 176.019V74.6546H292.061V172.595C292.061 185.38 295.306 194.968 301.796 201.361C308.527 207.753 318.02 210.949 330.279 210.949C344.22 210.949 355.037 206.612 362.727 197.937C370.419 189.033 374.265 176.704 374.265 160.951V74.6546H419.694V274.645C419.694 286.288 416.088 295.535 408.877 302.383C401.667 309.461 392.052 313 380.034 313H267.544ZM555.331 249.304C537.547 249.304 521.563 245.879 507.381 239.03C493.2 232.182 482.023 222.25 473.851 209.238C465.678 196.224 461.592 180.585 461.592 162.322V156.842C461.592 138.579 465.678 122.94 473.851 109.927C482.023 96.9132 493.2 86.9827 507.381 80.133C521.563 73.2842 537.547 69.8604 555.331 69.8604C573.123 69.8604 589.102 73.2842 603.281 80.133C617.471 86.9827 628.649 96.9132 636.814 109.927C644.99 122.94 649.079 138.579 649.079 156.842V162.322C649.079 180.585 644.99 196.224 636.814 209.238C628.649 222.25 617.471 232.182 603.281 239.03C589.102 245.879 573.123 249.304 555.331 249.304ZM555.331 210.949C569.272 210.949 580.812 206.726 589.94 198.279C599.079 189.604 603.643 177.276 603.643 161.295V157.87C603.643 141.889 599.079 129.675 589.94 121.227C581.05 112.552 569.51 108.214 555.331 108.214C541.393 108.214 529.855 112.552 520.722 121.227C511.588 129.675 507.021 141.889 507.021 157.87V161.295C507.021 177.276 511.588 189.604 520.722 198.279C529.855 206.726 541.393 210.949 555.331 210.949ZM798.453 249.304C782.35 249.304 769.972 246.678 761.308 241.428C752.656 236.177 746.291 230.355 742.203 223.962H735.714V244.51H691.003V4.79388H736.439V94.1735H742.928C745.567 90.0645 749.055 86.1835 753.381 82.5306C757.945 78.8777 763.833 75.9099 771.047 73.6274C778.499 71.1157 787.627 69.8604 798.453 69.8604C812.87 69.8604 826.211 73.2842 838.464 80.133C850.729 86.7536 860.582 96.5712 868.034 109.584C875.485 122.598 879.211 138.35 879.211 156.842V162.322C879.211 180.813 875.485 196.566 868.034 209.58C860.582 222.593 850.729 232.524 838.464 239.373C826.211 245.994 812.87 249.304 798.453 249.304ZM784.75 211.634C798.691 211.634 810.345 207.411 819.722 198.964C829.099 190.288 833.787 177.732 833.787 161.295V157.87C833.787 141.433 829.099 128.989 819.722 120.542C810.582 111.867 798.929 107.53 784.75 107.53C770.81 107.53 759.145 111.867 749.779 120.542C740.402 128.989 735.714 141.433 735.714 157.87V161.295C735.714 177.732 740.402 190.288 749.779 198.964C759.145 207.411 770.81 211.634 784.75 211.634ZM920.921 244.51V74.6546H966.356V244.51H920.921ZM943.638 54.7926C935.462 54.7926 928.497 52.281 922.721 47.2587C917.195 42.2354 914.431 35.6147 914.431 27.3956C914.431 19.1776 917.195 12.5569 922.721 7.53359C928.497 2.51134 935.462 0 943.638 0C952.053 0 959.017 2.51134 964.544 7.53359C970.082 12.5569 972.845 19.1776 972.845 27.3956C972.845 35.6147 970.082 42.2354 964.544 47.2587C959.017 52.281 952.053 54.7926 943.638 54.7926ZM1085.2 244.51C1073.42 244.51 1063.81 241.085 1056.35 234.236C1049.14 227.159 1045.54 217.799 1045.54 206.155V110.269H1000.83V74.6546H1045.54V21.9173H1090.96V74.6546H1140V110.269H1090.96V198.621C1090.96 205.471 1094.33 208.895 1101.05 208.895H1135.67V244.51H1085.2Z"/>
</mask>
<path d="M0 244.51V204.786H33.1694V44.519H0V4.79388H129.795C145.178 4.79388 158.519 7.30555 169.815 12.3278C181.353 17.1231 190.246 24.0858 196.495 33.2181C202.985 42.1214 206.23 52.8511 206.23 65.4083V68.8321C206.23 79.7909 204.067 88.8092 199.74 95.886C195.414 102.735 190.246 108.1 184.237 111.981C178.468 115.634 172.94 118.26 167.652 119.858V126.022C172.94 127.392 178.709 130.017 184.958 133.899C191.208 137.551 196.495 142.916 200.821 149.994C205.389 157.07 207.672 166.317 207.672 177.732V181.157C207.672 194.398 204.427 205.813 197.937 215.401C191.448 224.762 182.434 231.953 170.897 236.976C159.6 241.998 146.379 244.51 131.237 244.51H0ZM80.761 203.415H125.468C135.804 203.415 144.096 201.019 150.345 196.224C156.836 191.43 160.08 184.58 160.08 175.677V172.252C160.08 163.349 156.956 156.5 150.707 151.705C144.456 146.911 136.044 144.514 125.468 144.514H80.761V203.415ZM80.761 103.42H124.748C134.602 103.42 142.655 101.023 148.904 96.2291C155.393 91.4338 158.639 84.8131 158.639 76.366V72.9422C158.639 64.267 155.514 57.6463 149.264 53.0802C143.015 48.286 134.843 45.8883 124.748 45.8883H80.761V103.42ZM267.544 313V275.33H364.891C371.621 275.33 374.986 271.906 374.986 265.057V222.25H368.496C366.573 226.131 363.569 230.013 359.483 233.894C355.397 237.775 349.868 240.971 342.897 243.482C335.927 245.994 327.034 247.249 316.218 247.249C302.276 247.249 290.018 244.282 279.442 238.345C269.107 232.182 261.055 223.734 255.286 213.005C249.517 202.274 246.633 189.946 246.633 176.019V74.6546H292.061V172.595C292.061 185.38 295.306 194.968 301.796 201.361C308.527 207.753 318.02 210.949 330.279 210.949C344.22 210.949 355.037 206.612 362.727 197.937C370.419 189.033 374.265 176.704 374.265 160.951V74.6546H419.694V274.645C419.694 286.288 416.088 295.535 408.877 302.383C401.667 309.461 392.052 313 380.034 313H267.544ZM555.331 249.304C537.547 249.304 521.563 245.879 507.381 239.03C493.2 232.182 482.023 222.25 473.851 209.238C465.678 196.224 461.592 180.585 461.592 162.322V156.842C461.592 138.579 465.678 122.94 473.851 109.927C482.023 96.9132 493.2 86.9827 507.381 80.133C521.563 73.2842 537.547 69.8604 555.331 69.8604C573.123 69.8604 589.102 73.2842 603.281 80.133C617.471 86.9827 628.649 96.9132 636.814 109.927C644.99 122.94 649.079 138.579 649.079 156.842V162.322C649.079 180.585 644.99 196.224 636.814 209.238C628.649 222.25 617.471 232.182 603.281 239.03C589.102 245.879 573.123 249.304 555.331 249.304ZM555.331 210.949C569.272 210.949 580.812 206.726 589.94 198.279C599.079 189.604 603.643 177.276 603.643 161.295V157.87C603.643 141.889 599.079 129.675 589.94 121.227C581.05 112.552 569.51 108.214 555.331 108.214C541.393 108.214 529.855 112.552 520.722 121.227C511.588 129.675 507.021 141.889 507.021 157.87V161.295C507.021 177.276 511.588 189.604 520.722 198.279C529.855 206.726 541.393 210.949 555.331 210.949ZM798.453 249.304C782.35 249.304 769.972 246.678 761.308 241.428C752.656 236.177 746.291 230.355 742.203 223.962H735.714V244.51H691.003V4.79388H736.439V94.1735H742.928C745.567 90.0645 749.055 86.1835 753.381 82.5306C757.945 78.8777 763.833 75.9099 771.047 73.6274C778.499 71.1157 787.627 69.8604 798.453 69.8604C812.87 69.8604 826.211 73.2842 838.464 80.133C850.729 86.7536 860.582 96.5712 868.034 109.584C875.485 122.598 879.211 138.35 879.211 156.842V162.322C879.211 180.813 875.485 196.566 868.034 209.58C860.582 222.593 850.729 232.524 838.464 239.373C826.211 245.994 812.87 249.304 798.453 249.304ZM784.75 211.634C798.691 211.634 810.345 207.411 819.722 198.964C829.099 190.288 833.787 177.732 833.787 161.295V157.87C833.787 141.433 829.099 128.989 819.722 120.542C810.582 111.867 798.929 107.53 784.75 107.53C770.81 107.53 759.145 111.867 749.779 120.542C740.402 128.989 735.714 141.433 735.714 157.87V161.295C735.714 177.732 740.402 190.288 749.779 198.964C759.145 207.411 770.81 211.634 784.75 211.634ZM920.921 244.51V74.6546H966.356V244.51H920.921ZM943.638 54.7926C935.462 54.7926 928.497 52.281 922.721 47.2587C917.195 42.2354 914.431 35.6147 914.431 27.3956C914.431 19.1776 917.195 12.5569 922.721 7.53359C928.497 2.51134 935.462 0 943.638 0C952.053 0 959.017 2.51134 964.544 7.53359C970.082 12.5569 972.845 19.1776 972.845 27.3956C972.845 35.6147 970.082 42.2354 964.544 47.2587C959.017 52.281 952.053 54.7926 943.638 54.7926ZM1085.2 244.51C1073.42 244.51 1063.81 241.085 1056.35 234.236C1049.14 227.159 1045.54 217.799 1045.54 206.155V110.269H1000.83V74.6546H1045.54V21.9173H1090.96V74.6546H1140V110.269H1090.96V198.621C1090.96 205.471 1094.33 208.895 1101.05 208.895H1135.67V244.51H1085.2Z" stroke="url(#paint0_linear_1088_1235)" stroke-width="4" mask="url(#path-1-inside-1_1088_1235)"/>
</g>
<defs>
<linearGradient id="paint0_linear_1088_1235" x1="30.0766" y1="130.82" x2="1140" y2="130.82" gradientUnits="userSpaceOnUse">
<stop stop-color="#5A40EA"/>
<stop offset="1" stop-color="#7D0A56"/>
<stop offset="1" stop-color="#C746B4"/>
</linearGradient>
</defs>
</svg>
